<?xml version="1.0" encoding="us-ascii" standalone="no"?><svg xmlns="http://www.w3.org/2000/svg" xmlns:xlink="http://www.w3.org/1999/xlink" contentStyleType="text/css" height="967px" preserveAspectRatio="none" style="width:708px;height:967px;background:#FFFFFF;" version="1.1" viewBox="0 0 708 967" width="708px" zoomAndPan="magnify"><defs/><g><ellipse cx="372.25" cy="20" fill="#222222" rx="10" ry="10" style="stroke:#222222;stroke-width:1.0;"/><rect fill="#F1F1F1" height="33.9688" rx="12.5" ry="12.5" style="stroke:#181818;stroke-width:0.5;" width="93" x="325.75" y="50"/><text fill="#000000" font-family="sans-serif" font-size="12" lengthAdjust="spacing" textLength="73" x="335.75" y="71.1387">User logs in</text><polygon fill="#F1F1F1" points="321.25,103.9688,423.25,103.9688,435.25,115.9688,423.25,127.9688,321.25,127.9688,309.25,115.9688,321.25,103.9688" style="stroke:#181818;stroke-width:0.5;"/><text fill="#000000" font-family="sans-serif" font-size="11" lengthAdjust="spacing" textLength="102" x="321.25" y="119.7769">User is logged in?</text><text fill="#000000" font-family="sans-serif" font-size="11" lengthAdjust="spacing" textLength="21" x="288.25" y="113.3745">yes</text><text fill="#000000" font-family="sans-serif" font-size="11" lengthAdjust="spacing" textLength="14" x="435.25" y="113.3745">no</text><rect fill="#F1F1F1" height="33.9688" rx="12.5" ry="12.5" style="stroke:#181818;stroke-width:0.5;" width="171" x="105.25" y="137.9688"/><text fill="#000000" font-family="sans-serif" font-size="12" lengthAdjust="spacing" textLength="151" x="115.25" y="159.1074">User searches for shops</text><polygon fill="#F1F1F1" points="152.25,191.9375,229.25,191.9375,241.25,203.9375,229.25,215.9375,152.25,215.9375,140.25,203.9375,152.25,191.9375" style="stroke:#181818;stroke-width:0.5;"/><text fill="#000000" font-family="sans-serif" font-size="11" lengthAdjust="spacing" textLength="77" x="152.25" y="207.7456">Shops found?</text><text fill="#000000" font-family="sans-serif" font-size="11" lengthAdjust="spacing" textLength="21" x="119.25" y="201.3433">yes</text><text fill="#000000" font-family="sans-serif" font-size="11" lengthAdjust="spacing" textLength="14" x="241.25" y="201.3433">no</text><rect fill="#F1F1F1" height="33.9688" rx="12.5" ry="12.5" style="stroke:#181818;stroke-width:0.5;" width="142" x="34" y="225.9375"/><text fill="#000000" font-family="sans-serif" font-size="12" lengthAdjust="spacing" textLength="122" x="44" y="247.0762">User selects a shop</text><rect fill="#F1F1F1" height="33.9688" rx="12.5" ry="12.5" style="stroke:#181818;stroke-width:0.5;" width="188" x="11" y="294.9063"/><text fill="#000000" font-family="sans-serif" font-size="12" lengthAdjust="spacing" textLength="168" x="21" y="316.0449">User books an appointment</text><rect fill="#F1F1F1" height="33.9688" rx="12.5" ry="12.5" style="stroke:#181818;stroke-width:0.5;" width="147" x="31.5" y="363.875"/><text fill="#000000" font-family="sans-serif" font-size="12" lengthAdjust="spacing" textLength="127" x="41.5" y="385.0137">Appointment booked</text><rect fill="#F1F1F1" height="33.9688" rx="12.5" ry="12.5" style="stroke:#181818;stroke-width:0.5;" width="115" x="219" y="225.9375"/><text fill="#000000" font-family="sans-serif" font-size="12" lengthAdjust="spacing" textLength="95" x="229" y="247.0762">No shops found</text><polygon fill="#F1F1F1" points="190.75,403.8438,202.75,415.8438,190.75,427.8438,178.75,415.8438,190.75,403.8438" style="stroke:#181818;stroke-width:0.5;"/><rect fill="#F1F1F1" height="33.9688" rx="12.5" ry="12.5" style="stroke:#181818;stroke-width:0.5;" width="108" x="499.75" y="137.9688"/><text fill="#000000" font-family="sans-serif" font-size="12" lengthAdjust="spacing" textLength="88" x="509.75" y="159.1074">User registers</text><rect fill="#F1F1F1" height="33.9688" rx="12.5" ry="12.5" style="stroke:#181818;stroke-width:0.5;" width="93" x="507.25" y="191.9375"/><text fill="#000000" font-family="sans-serif" font-size="12" lengthAdjust="spacing" textLength="73" x="517.25" y="213.0762">User logs in</text><rect fill="#F1F1F1" height="33.9688" rx="12.5" ry="12.5" style="stroke:#181818;stroke-width:0.5;" width="171" x="468.25" y="260.9063"/><text fill="#000000" font-family="sans-serif" font-size="12" lengthAdjust="spacing" textLength="151" x="478.25" y="282.0449">User searches for shops</text><polygon fill="#F1F1F1" points="515.25,329.875,592.25,329.875,604.25,341.875,592.25,353.875,515.25,353.875,503.25,341.875,515.25,329.875" style="stroke:#181818;stroke-width:0.5;"/><text fill="#000000" font-family="sans-serif" font-size="11" lengthAdjust="spacing" textLength="77" x="515.25" y="345.6831">Shops found?</text><text fill="#000000" font-family="sans-serif" font-size="11" lengthAdjust="spacing" textLength="21" x="482.25" y="339.2808">yes</text><text fill="#000000" font-family="sans-serif" font-size="11" lengthAdjust="spacing" textLength="14" x="604.25" y="339.2808">no</text><rect fill="#F1F1F1" height="33.9688" rx="12.5" ry="12.5" style="stroke:#181818;stroke-width:0.5;" width="142" x="397" y="363.875"/><text fill="#000000" font-family="sans-serif" font-size="12" lengthAdjust="spacing" textLength="122" x="407" y="385.0137">User selects a shop</text><rect fill="#F1F1F1" height="33.9688" rx="12.5" ry="12.5" style="stroke:#181818;stroke-width:0.5;" width="188" x="374" y="432.8438"/><text fill="#000000" font-family="sans-serif" font-size="12" lengthAdjust="spacing" textLength="168" x="384" y="453.9824">User books an appointment</text><rect fill="#F1F1F1" height="33.9688" rx="12.5" ry="12.5" style="stroke:#181818;stroke-width:0.5;" width="147" x="394.5" y="486.8125"/><text fill="#000000" font-family="sans-serif" font-size="12" lengthAdjust="spacing" textLength="127" x="404.5" y="507.9512">Appointment booked</text><rect fill="#F1F1F1" height="33.9688" rx="12.5" ry="12.5" style="stroke:#181818;stroke-width:0.5;" width="115" x="582" y="363.875"/><text fill="#000000" font-family="sans-serif" font-size="12" lengthAdjust="spacing" textLength="95" x="592" y="385.0137">No shops found</text><polygon fill="#F1F1F1" points="553.75,526.7813,565.75,538.7813,553.75,550.7813,541.75,538.7813,553.75,526.7813" style="stroke:#181818;stroke-width:0.5;"/><polygon fill="#F1F1F1" points="372.25,556.7813,384.25,568.7813,372.25,580.7813,360.25,568.7813,372.25,556.7813" style="stroke:#181818;stroke-width:0.5;"/><rect fill="#F1F1F1" height="33.9688" rx="12.5" ry="12.5" style="stroke:#181818;stroke-width:0.5;" width="166" x="289.25" y="600.7813"/><text fill="#000000" font-family="sans-serif" font-size="12" lengthAdjust="spacing" textLength="146" x="299.25" y="621.9199">Service provider logs in</text><polygon fill="#F1F1F1" points="286.75,654.75,457.75,654.75,469.75,666.75,457.75,678.75,286.75,678.75,274.75,666.75,286.75,654.75" style="stroke:#181818;stroke-width:0.5;"/><text fill="#000000" font-family="sans-serif" font-size="11" lengthAdjust="spacing" textLength="171" x="286.75" y="670.5581">Service provider is logged in?</text><text fill="#000000" font-family="sans-serif" font-size="11" lengthAdjust="spacing" textLength="21" x="253.75" y="664.1558">yes</text><text fill="#000000" font-family="sans-serif" font-size="11" lengthAdjust="spacing" textLength="14" x="469.75" y="664.1558">no</text><rect fill="#F1F1F1" height="33.9688" rx="12.5" ry="12.5" style="stroke:#181818;stroke-width:0.5;" width="272" x="90.25" y="688.75"/><text fill="#000000" font-family="sans-serif" font-size="12" lengthAdjust="spacing" textLength="252" x="100.25" y="709.8887">Service provider views live appointments</text><rect fill="#F1F1F1" height="33.9688" rx="12.5" ry="12.5" style="stroke:#181818;stroke-width:0.5;" width="148" x="152.25" y="742.7188"/><text fill="#000000" font-family="sans-serif" font-size="12" lengthAdjust="spacing" textLength="128" x="162.25" y="763.8574">Calendar view shown</text><rect fill="#F1F1F1" height="33.9688" rx="12.5" ry="12.5" style="stroke:#181818;stroke-width:0.5;" width="181" x="427.75" y="688.75"/><text fill="#000000" font-family="sans-serif" font-size="12" lengthAdjust="spacing" textLength="161" x="437.75" y="709.8887">Service provider registers</text><rect fill="#F1F1F1" height="33.9688" rx="12.5" ry="12.5" style="stroke:#181818;stroke-width:0.5;" width="166" x="435.25" y="742.7188"/><text fill="#000000" font-family="sans-serif" font-size="12" lengthAdjust="spacing" textLength="146" x="445.25" y="763.8574">Service provider logs in</text><rect fill="#F1F1F1" height="33.9688" rx="12.5" ry="12.5" style="stroke:#181818;stroke-width:0.5;" width="272" x="382.25" y="796.6875"/><text fill="#000000" font-family="sans-serif" font-size="12" lengthAdjust="spacing" textLength="252" x="392.25" y="817.8262">Service provider views live appointments</text><rect fill="#F1F1F1" height="33.9688" rx="12.5" ry="12.5" style="stroke:#181818;stroke-width:0.5;" width="148" x="444.25" y="850.6563"/><text fill="#000000" font-family="sans-serif" font-size="12" lengthAdjust="spacing" textLength="128" x="454.25" y="871.7949">Calendar view shown</text><polygon fill="#F1F1F1" points="372.25,890.625,384.25,902.625,372.25,914.625,360.25,902.625,372.25,890.625" style="stroke:#181818;stroke-width:0.5;"/><ellipse cx="372.25" cy="945.625" fill="none" rx="11" ry="11" style="stroke:#222222;stroke-width:1.0;"/><ellipse cx="372.25" cy="945.625" fill="#222222" rx="6" ry="6" style="stroke:#222222;stroke-width:1.0;"/><line style="stroke:#181818;stroke-width:1.0;" x1="372.25" x2="372.25" y1="30" y2="50"/><polygon fill="#181818" points="368.25,40,372.25,50,376.25,40,372.25,44" style="stroke:#181818;stroke-width:1.0;"/><line style="stroke:#181818;stroke-width:1.0;" x1="105" x2="105" y1="259.9063" y2="294.9063"/><polygon fill="#181818" points="101,284.9063,105,294.9063,109,284.9063,105,288.9063" style="stroke:#181818;stroke-width:1.0;"/><line style="stroke:#181818;stroke-width:1.0;" x1="105" x2="105" y1="328.875" y2="363.875"/><polygon fill="#181818" points="101,353.875,105,363.875,109,353.875,105,357.875" style="stroke:#181818;stroke-width:1.0;"/><line style="stroke:#181818;stroke-width:1.0;" x1="140.25" x2="105" y1="203.9375" y2="203.9375"/><line style="stroke:#181818;stroke-width:1.0;" x1="105" x2="105" y1="203.9375" y2="225.9375"/><polygon fill="#181818" points="101,215.9375,105,225.9375,109,215.9375,105,219.9375" style="stroke:#181818;stroke-width:1.0;"/><line style="stroke:#181818;stroke-width:1.0;" x1="241.25" x2="276.5" y1="203.9375" y2="203.9375"/><line style="stroke:#181818;stroke-width:1.0;" x1="276.5" x2="276.5" y1="203.9375" y2="225.9375"/><polygon fill="#181818" points="272.5,215.9375,276.5,225.9375,280.5,215.9375,276.5,219.9375" style="stroke:#181818;stroke-width:1.0;"/><line style="stroke:#181818;stroke-width:1.0;" x1="105" x2="105" y1="397.8438" y2="415.8438"/><line style="stroke:#181818;stroke-width:1.0;" x1="105" x2="178.75" y1="415.8438" y2="415.8438"/><polygon fill="#181818" points="168.75,411.8438,178.75,415.8438,168.75,419.8438,172.75,415.8438" style="stroke:#181818;stroke-width:1.0;"/><line style="stroke:#181818;stroke-width:1.0;" x1="276.5" x2="276.5" y1="259.9063" y2="415.8438"/><line style="stroke:#181818;stroke-width:1.0;" x1="276.5" x2="202.75" y1="415.8438" y2="415.8438"/><polygon fill="#181818" points="212.75,411.8438,202.75,415.8438,212.75,419.8438,208.75,415.8438" style="stroke:#181818;stroke-width:1.0;"/><line style="stroke:#181818;stroke-width:1.0;" x1="190.75" x2="190.75" y1="171.9375" y2="191.9375"/><polygon fill="#181818" points="186.75,181.9375,190.75,191.9375,194.75,181.9375,190.75,185.9375" style="stroke:#181818;stroke-width:1.0;"/><line style="stroke:#181818;stroke-width:1.0;" x1="553.75" x2="553.75" y1="171.9375" y2="191.9375"/><polygon fill="#181818" points="549.75,181.9375,553.75,191.9375,557.75,181.9375,553.75,185.9375" style="stroke:#181818;stroke-width:1.0;"/><line style="stroke:#181818;stroke-width:1.0;" x1="553.75" x2="553.75" y1="225.9063" y2="260.9063"/><polygon fill="#181818" points="549.75,250.9063,553.75,260.9063,557.75,250.9063,553.75,254.9063" style="stroke:#181818;stroke-width:1.0;"/><line style="stroke:#181818;stroke-width:1.0;" x1="468" x2="468" y1="397.8438" y2="432.8438"/><polygon fill="#181818" points="464,422.8438,468,432.8438,472,422.8438,468,426.8438" style="stroke:#181818;stroke-width:1.0;"/><line style="stroke:#181818;stroke-width:1.0;" x1="468" x2="468" y1="466.8125" y2="486.8125"/><polygon fill="#181818" points="464,476.8125,468,486.8125,472,476.8125,468,480.8125" style="stroke:#181818;stroke-width:1.0;"/><line style="stroke:#181818;stroke-width:1.0;" x1="503.25" x2="468" y1="341.875" y2="341.875"/><line style="stroke:#181818;stroke-width:1.0;" x1="468" x2="468" y1="341.875" y2="363.875"/><polygon fill="#181818" points="464,353.875,468,363.875,472,353.875,468,357.875" style="stroke:#181818;stroke-width:1.0;"/><line style="stroke:#181818;stroke-width:1.0;" x1="604.25" x2="639.5" y1="341.875" y2="341.875"/><line style="stroke:#181818;stroke-width:1.0;" x1="639.5" x2="639.5" y1="341.875" y2="363.875"/><polygon fill="#181818" points="635.5,353.875,639.5,363.875,643.5,353.875,639.5,357.875" style="stroke:#181818;stroke-width:1.0;"/><line style="stroke:#181818;stroke-width:1.0;" x1="468" x2="468" y1="520.7813" y2="538.7813"/><line style="stroke:#181818;stroke-width:1.0;" x1="468" x2="541.75" y1="538.7813" y2="538.7813"/><polygon fill="#181818" points="531.75,534.7813,541.75,538.7813,531.75,542.7813,535.75,538.7813" style="stroke:#181818;stroke-width:1.0;"/><line style="stroke:#181818;stroke-width:1.0;" x1="639.5" x2="639.5" y1="397.8438" y2="538.7813"/><line style="stroke:#181818;stroke-width:1.0;" x1="639.5" x2="565.75" y1="538.7813" y2="538.7813"/><polygon fill="#181818" points="575.75,534.7813,565.75,538.7813,575.75,542.7813,571.75,538.7813" style="stroke:#181818;stroke-width:1.0;"/><line style="stroke:#181818;stroke-width:1.0;" x1="553.75" x2="553.75" y1="294.875" y2="329.875"/><polygon fill="#181818" points="549.75,319.875,553.75,329.875,557.75,319.875,553.75,323.875" style="stroke:#181818;stroke-width:1.0;"/><line style="stroke:#181818;stroke-width:1.0;" x1="309.25" x2="190.75" y1="115.9688" y2="115.9688"/><line style="stroke:#181818;stroke-width:1.0;" x1="190.75" x2="190.75" y1="115.9688" y2="137.9688"/><polygon fill="#181818" points="186.75,127.9688,190.75,137.9688,194.75,127.9688,190.75,131.9688" style="stroke:#181818;stroke-width:1.0;"/><line style="stroke:#181818;stroke-width:1.0;" x1="435.25" x2="553.75" y1="115.9688" y2="115.9688"/><line style="stroke:#181818;stroke-width:1.0;" x1="553.75" x2="553.75" y1="115.9688" y2="137.9688"/><polygon fill="#181818" points="549.75,127.9688,553.75,137.9688,557.75,127.9688,553.75,131.9688" style="stroke:#181818;stroke-width:1.0;"/><line style="stroke:#181818;stroke-width:1.0;" x1="190.75" x2="190.75" y1="427.8438" y2="568.7813"/><line style="stroke:#181818;stroke-width:1.0;" x1="190.75" x2="360.25" y1="568.7813" y2="568.7813"/><polygon fill="#181818" points="350.25,564.7813,360.25,568.7813,350.25,572.7813,354.25,568.7813" style="stroke:#181818;stroke-width:1.0;"/><line style="stroke:#181818;stroke-width:1.0;" x1="553.75" x2="553.75" y1="550.7813" y2="568.7813"/><line style="stroke:#181818;stroke-width:1.0;" x1="553.75" x2="384.25" y1="568.7813" y2="568.7813"/><polygon fill="#181818" points="394.25,564.7813,384.25,568.7813,394.25,572.7813,390.25,568.7813" style="stroke:#181818;stroke-width:1.0;"/><line style="stroke:#181818;stroke-width:1.0;" x1="372.25" x2="372.25" y1="83.9688" y2="103.9688"/><polygon fill="#181818" points="368.25,93.9688,372.25,103.9688,376.25,93.9688,372.25,97.9688" style="stroke:#181818;stroke-width:1.0;"/><line style="stroke:#181818;stroke-width:1.0;" x1="372.25" x2="372.25" y1="580.7813" y2="600.7813"/><polygon fill="#181818" points="368.25,590.7813,372.25,600.7813,376.25,590.7813,372.25,594.7813" style="stroke:#181818;stroke-width:1.0;"/><line style="stroke:#181818;stroke-width:1.0;" x1="226.25" x2="226.25" y1="722.7188" y2="742.7188"/><polygon fill="#181818" points="222.25,732.7188,226.25,742.7188,230.25,732.7188,226.25,736.7188" style="stroke:#181818;stroke-width:1.0;"/><line style="stroke:#181818;stroke-width:1.0;" x1="518.25" x2="518.25" y1="722.7188" y2="742.7188"/><polygon fill="#181818" points="514.25,732.7188,518.25,742.7188,522.25,732.7188,518.25,736.7188" style="stroke:#181818;stroke-width:1.0;"/><line style="stroke:#181818;stroke-width:1.0;" x1="518.25" x2="518.25" y1="776.6875" y2="796.6875"/><polygon fill="#181818" points="514.25,786.6875,518.25,796.6875,522.25,786.6875,518.25,790.6875" style="stroke:#181818;stroke-width:1.0;"/><line style="stroke:#181818;stroke-width:1.0;" x1="518.25" x2="518.25" y1="830.6563" y2="850.6563"/><polygon fill="#181818" points="514.25,840.6563,518.25,850.6563,522.25,840.6563,518.25,844.6563" style="stroke:#181818;stroke-width:1.0;"/><line style="stroke:#181818;stroke-width:1.0;" x1="274.75" x2="226.25" y1="666.75" y2="666.75"/><line style="stroke:#181818;stroke-width:1.0;" x1="226.25" x2="226.25" y1="666.75" y2="688.75"/><polygon fill="#181818" points="222.25,678.75,226.25,688.75,230.25,678.75,226.25,682.75" style="stroke:#181818;stroke-width:1.0;"/><line style="stroke:#181818;stroke-width:1.0;" x1="469.75" x2="518.25" y1="666.75" y2="666.75"/><line style="stroke:#181818;stroke-width:1.0;" x1="518.25" x2="518.25" y1="666.75" y2="688.75"/><polygon fill="#181818" points="514.25,678.75,518.25,688.75,522.25,678.75,518.25,682.75" style="stroke:#181818;stroke-width:1.0;"/><line style="stroke:#181818;stroke-width:1.0;" x1="226.25" x2="226.25" y1="776.6875" y2="902.625"/><line style="stroke:#181818;stroke-width:1.0;" x1="226.25" x2="360.25" y1="902.625" y2="902.625"/><polygon fill="#181818" points="350.25,898.625,360.25,902.625,350.25,906.625,354.25,902.625" style="stroke:#181818;stroke-width:1.0;"/><line style="stroke:#181818;stroke-width:1.0;" x1="518.25" x2="518.25" y1="884.625" y2="902.625"/><line style="stroke:#181818;stroke-width:1.0;" x1="518.25" x2="384.25" y1="902.625" y2="902.625"/><polygon fill="#181818" points="394.25,898.625,384.25,902.625,394.25,906.625,390.25,902.625" style="stroke:#181818;stroke-width:1.0;"/><line style="stroke:#181818;stroke-width:1.0;" x1="372.25" x2="372.25" y1="634.75" y2="654.75"/><polygon fill="#181818" points="368.25,644.75,372.25,654.75,376.25,644.75,372.25,648.75" style="stroke:#181818;stroke-width:1.0;"/><line style="stroke:#181818;stroke-width:1.0;" x1="372.25" x2="372.25" y1="914.625" y2="934.625"/><polygon fill="#181818" points="368.25,924.625,372.25,934.625,376.25,924.625,372.25,928.625" style="stroke:#181818;stroke-width:1.0;"/><!--SRC=[rL4x3i8m3Drp2e_b2dH0Y9q5SO3GkAr5YQCu575xya6Yj8A9XIMItyT-iILe7zJwAEXXu4w0RAseXIeZ90diq4HuiuBGeuNgZh9I0CKZg7tJeq3BiUZPIHsvrE2GYWXVhPbRN-O1co2WixEUC2VcSyGjQEUORBYW3Kz- -qAo34qYS124olAp_PvBc38_2woXLarbPPB7ZYIWpxbdU_ZNJ-PNhG_eHseGdEUHpFp02_RhiHVgaV0M3JJYD7xPuauFCOCkefJn5cU-hNxHxlqCdvF_9afPa0Hs3m00]--></g></svg>